<svg width="40" height="41" viewBox="0 0 40 41" fill="none" xmlns="http://www.w3.org/2000/svg">
<g clip-path="url(#clip0_1_202)">
<path d="M4.45531 21.1096V18.5829H0.195312V0.272949H24.8953V18.5829H9.50198L4.45531 21.1096ZM1.47198 17.3063H5.73198V19.043L9.35198 17.3063H23.6186V1.54962H1.47198V17.3063Z" fill="white"/>
<path d="M19.9985 4.53076H5.0918V5.80743H19.9985V4.53076Z" fill="white"/>
<path d="M19.9985 8.78857H5.0918V10.0652H19.9985V8.78857Z" fill="white"/>
<path d="M11.4785 13.0464H5.0918V14.3231H11.4785V13.0464Z" fill="white"/>
<path d="M35.5405 40.2715L30.4938 37.7482H17.2305V23.6948H39.8005V37.7482H35.5405V40.2715ZM18.5071 36.4715L30.9305 36.5382L34.2638 38.2048V36.4715H38.5238V24.9715H18.5238L18.5071 36.4715Z" fill="white"/>
<path d="M34.9056 27.9526H22.1289V29.2293H34.9056V27.9526Z" fill="white"/>
<path d="M34.9056 32.2104H22.1289V33.4871H34.9056V32.2104Z" fill="white"/>
</g>
<defs>
<clipPath id="clip0_1_202">
<rect width="40" height="40" fill="white" transform="translate(0 0.272949)"/>
</clipPath>
</defs>
</svg>
