<svg width="30" height="31" viewBox="0 0 30 31" fill="none" xmlns="http://www.w3.org/2000/svg">
<g clip-path="url(#clip0_282_92)">
<path d="M26.6667 5.27295H3.33335C2.89133 5.27295 2.4674 5.44854 2.15484 5.7611C1.84228 6.07367 1.66669 6.49759 1.66669 6.93962V23.6063C1.66669 24.0483 1.84228 24.4722 2.15484 24.7848C2.4674 25.0974 2.89133 25.2729 3.33335 25.2729H26.6667C27.1087 25.2729 27.5326 25.0974 27.8452 24.7848C28.1578 24.4722 28.3334 24.0483 28.3334 23.6063V6.93962C28.3334 6.49759 28.1578 6.07367 27.8452 5.7611C27.5326 5.44854 27.1087 5.27295 26.6667 5.27295ZM25.3834 23.6063H4.71669L10.55 17.5729L9.35002 16.4146L3.33335 22.6396V8.20628L13.6917 18.5146C14.004 18.825 14.4264 18.9993 14.8667 18.9993C15.307 18.9993 15.7294 18.825 16.0417 18.5146L26.6667 7.94795V22.5313L20.5334 16.3979L19.3584 17.5729L25.3834 23.6063ZM4.42502 6.93962H25.3167L14.8667 17.3313L4.42502 6.93962Z" fill="#949494"/>
</g>
<defs>
<clipPath id="clip0_282_92">
<rect width="30" height="30" fill="white" transform="translate(0 0.272949)"/>
</clipPath>
</defs>
</svg>
