<svg width="16" height="26" viewBox="0 0 16 26" fill="none" xmlns="http://www.w3.org/2000/svg">
<path d="M3.83359 1.13909L15.0669 12.3391C15.2003 12.4724 15.2945 12.6169 15.3496 12.7724C15.4056 12.928 15.4336 13.0946 15.4336 13.2724C15.4336 13.4502 15.4056 13.6169 15.3496 13.7724C15.2945 13.928 15.2003 14.0724 15.0669 14.2058L3.83359 25.4391C3.52248 25.7502 3.13359 25.9058 2.66693 25.9058C2.20026 25.9058 1.80026 25.7391 1.46693 25.4058C1.1336 25.0724 0.966928 24.6835 0.966928 24.2391C0.966928 23.7947 1.1336 23.4058 1.46693 23.0724L11.2669 13.2724L1.46693 3.47243C1.15582 3.16132 1.00026 2.77821 1.00026 2.32309C1.00026 1.86709 1.16693 1.47243 1.50026 1.13909C1.8336 0.805759 2.22248 0.639093 2.66693 0.639093C3.11137 0.639093 3.50026 0.805759 3.83359 1.13909Z" fill="#2CA3D1"/>
</svg>
