<svg width="40" height="41" viewBox="0 0 40 41" fill="none" xmlns="http://www.w3.org/2000/svg">
<g clip-path="url(#clip0_1_216)">
<path d="M8.58966 7.64113C9.31837 7.6413 10.0308 7.42537 10.6367 7.02065C11.2427 6.61594 11.7151 6.04062 11.9941 5.36746C12.273 4.69429 12.3461 3.95352 12.204 3.23882C12.062 2.52412 11.7112 1.8676 11.1959 1.35229C10.6807 0.836978 10.0243 0.48602 9.30956 0.343801C8.59486 0.201582 7.85404 0.27449 7.18079 0.553306C6.50753 0.832121 5.93208 1.30432 5.52721 1.91018C5.12235 2.51605 4.90625 3.22836 4.90625 3.95704C4.90713 4.93371 5.29546 5.87013 5.98602 6.56082C6.67658 7.2515 7.61295 7.64003 8.58966 7.64113ZM8.58966 1.48543C9.07876 1.48526 9.55691 1.63015 9.96365 1.90176C10.3704 2.17337 10.6874 2.55951 10.8747 3.01132C11.0619 3.46314 11.111 3.96033 11.0156 4.44002C10.9202 4.91971 10.6847 5.36033 10.3389 5.70616C9.99301 6.05199 9.55237 6.28748 9.07266 6.38286C8.59295 6.47823 8.09574 6.4292 7.6439 6.24196C7.19207 6.05472 6.80592 5.73769 6.53429 5.33097C6.26267 4.92425 6.11778 4.44612 6.11794 3.95704C6.1186 3.30173 6.37923 2.67345 6.84262 2.21008C7.30602 1.7467 7.93432 1.48609 8.58966 1.48543Z" fill="white"/>
<path d="M31.4069 7.64113C32.1356 7.64113 32.8479 7.42506 33.4538 7.02025C34.0596 6.61544 34.5318 6.04006 34.8107 5.36688C35.0895 4.6937 35.1625 3.95295 35.0203 3.23831C34.8782 2.52367 34.5273 1.86723 34.0121 1.352C33.4968 0.836767 32.8403 0.485891 32.1257 0.34374C31.411 0.201588 30.6702 0.274545 29.997 0.553386C29.3238 0.832226 28.7484 1.30442 28.3436 1.91027C27.9387 2.51612 27.7227 3.2284 27.7227 3.95704C27.7235 4.93385 28.112 5.8704 28.8027 6.56111C29.4935 7.25182 30.43 7.64025 31.4069 7.64113ZM31.4069 1.48543C31.896 1.48526 32.3742 1.63015 32.7809 1.90176C33.1876 2.17337 33.5047 2.55951 33.6919 3.01132C33.8792 3.46314 33.9282 3.96033 33.8328 4.44002C33.7374 4.91971 33.5019 5.36033 33.1561 5.70616C32.8102 6.05199 32.3696 6.28748 31.8899 6.38286C31.4102 6.47823 30.913 6.4292 30.4611 6.24196C30.0093 6.05472 29.6232 5.73769 29.3515 5.33097C29.0799 4.92425 28.935 4.44612 28.9352 3.95704C28.9358 3.30173 29.1965 2.67345 29.6599 2.21008C30.1233 1.7467 30.7516 1.48609 31.4069 1.48543Z" fill="white"/>
<path d="M35.8799 9.20266H27.8964C27.1284 9.19992 26.375 9.41287 25.722 9.81727C25.069 10.2217 24.5427 10.8013 24.203 11.4901L20.0004 19.9466L15.7962 11.4901C15.4572 10.8034 14.9327 10.2252 14.2823 9.82096C13.6318 9.41672 12.8811 9.20255 12.1153 9.20266H4.12009C3.02778 9.20399 1.98059 9.63847 1.20821 10.4108C0.435827 11.1832 0.00132321 12.2303 0 13.3226L0 23.5724C0.000220142 24.1993 0.24921 24.8005 0.69231 25.2441C1.13541 25.6877 1.73641 25.9373 2.36338 25.9381C2.76735 25.9356 3.1637 25.8279 3.51341 25.6257V37.4587C3.52072 38.0468 3.71006 38.6182 4.05538 39.0942C4.4007 39.5703 4.88503 39.9277 5.44177 40.1172C5.99851 40.3068 6.60031 40.3192 7.16441 40.1528C7.7285 39.9864 8.22717 39.6493 8.59185 39.1879C8.9571 39.6482 9.45592 39.9842 10.0198 40.1497C10.5837 40.3152 11.185 40.3021 11.7411 40.1122C12.2972 39.9222 12.7809 39.5648 13.1257 39.0889C13.4706 38.6131 13.6596 38.0422 13.667 37.4546V20.9074C13.6611 20.7505 13.5947 20.602 13.4817 20.4931C13.3686 20.3841 13.2177 20.3232 13.0607 20.3232C12.9037 20.3232 12.7528 20.3841 12.6397 20.4931C12.5267 20.602 12.4602 20.7505 12.4544 20.9074V23.3832H4.72593V13.9334C4.72011 13.7765 4.65369 13.628 4.54063 13.519C4.42757 13.4101 4.27668 13.3492 4.11967 13.3492C3.96266 13.3492 3.81177 13.4101 3.69871 13.519C3.58564 13.628 3.51922 13.7765 3.51341 13.9334V23.5732C3.51341 23.7243 3.48364 23.874 3.4258 24.0136C3.36797 24.1532 3.2832 24.2801 3.17633 24.3869C3.06946 24.4938 2.94259 24.5786 2.80296 24.6364C2.66333 24.6942 2.51368 24.724 2.36255 24.724C2.21142 24.724 2.06176 24.6942 1.92214 24.6364C1.78251 24.5786 1.65564 24.4938 1.54877 24.3869C1.4419 24.2801 1.35713 24.1532 1.2993 24.0136C1.24146 23.874 1.21169 23.7243 1.21169 23.5732V13.3234C1.21257 12.5524 1.5193 11.8133 2.06457 11.2682C2.60983 10.7231 3.34908 10.4166 4.12009 10.416H8.02683C8.06753 10.5335 8.14386 10.6355 8.2452 10.7076C8.34654 10.7798 8.46785 10.8186 8.59226 10.8186C8.71667 10.8186 8.83798 10.7798 8.93933 10.7076C9.04067 10.6355 9.117 10.5335 9.15769 10.416H12.1128C12.6534 10.4155 13.1833 10.5666 13.6425 10.852C14.1016 11.1375 14.4715 11.5459 14.7103 12.0309L19.2737 21.2091C19.341 21.3444 19.3809 21.4917 19.3912 21.6425C19.4016 21.7933 19.3821 21.9447 19.3339 22.088C19.2857 22.2312 19.2098 22.3636 19.1105 22.4775C19.0112 22.5915 18.8903 22.6847 18.755 22.752C18.6196 22.8192 18.4723 22.8591 18.3215 22.8695C18.1707 22.8798 18.0193 22.8603 17.8761 22.8121C17.7328 22.764 17.6004 22.6881 17.4865 22.5887C17.3725 22.4894 17.2793 22.3686 17.212 22.2332L12.9211 13.6051C12.843 13.4733 12.7179 13.3759 12.5709 13.3325C12.424 13.2891 12.266 13.303 12.1289 13.3712C11.9917 13.4395 11.8854 13.5572 11.8314 13.7005C11.7774 13.8439 11.7797 14.0024 11.8377 14.1442L16.1262 22.7715C16.2965 23.1183 16.5496 23.4178 16.8632 23.6436C17.1767 23.8694 17.541 24.0145 17.9239 24.0662C18.3068 24.1178 18.6966 24.0744 19.0587 23.9397C19.4209 23.8051 19.7443 23.5833 20.0004 23.294C20.2574 23.582 20.581 23.8025 20.943 23.9363C21.305 24.0701 21.6942 24.1131 22.0767 24.0616C22.4591 24.01 22.8231 23.8654 23.1367 23.6405C23.4503 23.4156 23.704 23.1172 23.8755 22.7715L28.1673 14.1401C28.2097 14.0683 28.2369 13.9885 28.2471 13.9057C28.2572 13.823 28.2502 13.739 28.2265 13.659C28.2027 13.5791 28.1627 13.5049 28.1089 13.4412C28.0551 13.3774 27.9888 13.3255 27.914 13.2885C27.8392 13.2516 27.7576 13.2305 27.6743 13.2266C27.591 13.2226 27.5078 13.2359 27.4299 13.2657C27.3519 13.2954 27.281 13.3409 27.2215 13.3993C27.1619 13.4577 27.1151 13.5277 27.0839 13.6051L22.7896 22.2316C22.6499 22.4982 22.4112 22.6996 22.1248 22.7925C21.8384 22.8854 21.527 22.8624 21.2573 22.7285C20.9876 22.5946 20.7811 22.3604 20.682 22.0761C20.5829 21.7918 20.5991 21.4799 20.7271 21.2074L25.2897 12.0293C25.5294 11.5428 25.9009 11.1335 26.3619 10.848C26.823 10.5624 27.355 10.4122 27.8972 10.4143H35.8807C36.6516 10.4152 37.3906 10.7218 37.9357 11.2668C38.4808 11.8119 38.7874 12.5509 38.7883 13.3217V23.5715C38.7883 23.7227 38.7585 23.8723 38.7007 24.0119C38.6429 24.1515 38.5581 24.2784 38.4512 24.3853C38.3444 24.4921 38.2175 24.5769 38.0779 24.6347C37.9382 24.6926 37.7886 24.7223 37.6375 24.7223C37.4863 24.7223 37.3367 24.6926 37.197 24.6347C37.0574 24.5769 36.9305 24.4921 36.8237 24.3853C36.7168 24.2784 36.632 24.1515 36.5742 24.0119C36.5164 23.8723 36.4866 23.7227 36.4866 23.5715V13.9326C36.4866 13.7717 36.4227 13.6174 36.3089 13.5036C36.1951 13.3898 36.0408 13.3259 35.8799 13.3259C35.719 13.3259 35.5647 13.3898 35.4509 13.5036C35.3372 13.6174 35.2732 13.7717 35.2732 13.9326V23.3824H27.5414V20.9066C27.5356 20.7497 27.4692 20.6012 27.3561 20.4922C27.243 20.3833 27.0922 20.3224 26.9351 20.3224C26.7781 20.3224 26.6272 20.3833 26.5142 20.4922C26.4011 20.6012 26.3347 20.7497 26.3289 20.9066V37.4537C26.3352 38.0422 26.5238 38.6143 26.8687 39.0911C27.2137 39.568 27.698 39.9262 28.2549 40.1163C28.8119 40.3065 29.4141 40.3194 29.9787 40.1531C30.5433 39.9868 31.0424 39.6496 31.4073 39.1879C31.7724 39.6497 32.2717 39.987 32.8365 40.1532C33.4013 40.3194 34.0038 40.3064 34.5609 40.1159C35.1179 39.9254 35.6022 39.5668 35.947 39.0896C36.2917 38.6124 36.48 38.0399 36.4858 37.4512V25.6182C36.8355 25.8204 37.2318 25.9281 37.6358 25.9306C38.2617 25.9302 38.862 25.6818 39.3053 25.2398C39.7485 24.7979 39.9986 24.1983 40.0008 23.5724V13.3217C39.9993 12.2295 39.5646 11.1824 38.792 10.4102C38.0195 9.63804 36.9722 9.20377 35.8799 9.20266ZM4.7251 24.5948H12.4569V37.4546C12.4569 37.8869 12.2852 38.3015 11.9795 38.6071C11.6738 38.9128 11.2592 39.0845 10.8269 39.0845C10.3946 39.0845 9.97997 38.9128 9.67428 38.6071C9.36859 38.3015 9.19686 37.8869 9.19686 37.4546V26.9381C9.19988 26.8566 9.18644 26.7753 9.15733 26.6992C9.12822 26.623 9.08405 26.5534 9.02746 26.4947C8.97086 26.436 8.90301 26.3893 8.82795 26.3573C8.75288 26.3254 8.67216 26.309 8.5906 26.309C8.50903 26.309 8.42831 26.3254 8.35325 26.3573C8.27818 26.3893 8.21033 26.436 8.15373 26.4947C8.09714 26.5534 8.05297 26.623 8.02386 26.6992C7.99475 26.7753 7.98131 26.8566 7.98433 26.9381V37.4546C7.9747 37.8806 7.79869 38.2859 7.49397 38.5838C7.18925 38.8817 6.78003 39.0485 6.35388 39.0485C5.92773 39.0485 5.51851 38.8817 5.21379 38.5838C4.90907 38.2859 4.73306 37.8806 4.72343 37.4546V24.5948H4.7251ZM35.2732 37.4546C35.2732 37.8869 35.1015 38.3015 34.7958 38.6071C34.4901 38.9128 34.0755 39.0845 33.6432 39.0845C33.2109 39.0845 32.7963 38.9128 32.4906 38.6071C32.1849 38.3015 32.0132 37.8869 32.0132 37.4546V26.9381C32.0162 26.8566 32.0027 26.7753 31.9736 26.6992C31.9445 26.623 31.9004 26.5534 31.8438 26.4947C31.7872 26.436 31.7193 26.3893 31.6443 26.3573C31.5692 26.3254 31.4885 26.309 31.4069 26.309C31.3253 26.309 31.2446 26.3254 31.1696 26.3573C31.0945 26.3893 31.0266 26.436 30.97 26.4947C30.9134 26.5534 30.8693 26.623 30.8402 26.6992C30.8111 26.7753 30.7976 26.8566 30.8006 26.9381V37.4546C30.8006 37.8869 30.6289 38.3015 30.3232 38.6071C30.0175 38.9128 29.6029 39.0845 29.1706 39.0845C28.7383 39.0845 28.3237 38.9128 28.018 38.6071C27.7123 38.3015 27.5406 37.8869 27.5406 37.4546V24.5948H35.2724L35.2732 37.4546Z" fill="white"/>
<path d="M9.1969 18.2399C9.19108 18.083 9.12466 17.9345 9.0116 17.8256C8.89854 17.7166 8.74765 17.6558 8.59064 17.6558C8.43363 17.6558 8.28273 17.7166 8.16967 17.8256C8.05661 17.9345 7.99019 18.083 7.98438 18.2399V18.9708C7.99019 19.1276 8.05661 19.2762 8.16967 19.3851C8.28273 19.4941 8.43363 19.5549 8.59064 19.5549C8.74765 19.5549 8.89854 19.4941 9.0116 19.3851C9.12466 19.2762 9.19108 19.1276 9.1969 18.9708V18.2399Z" fill="white"/>
<path d="M9.1969 12.404C9.19108 12.2471 9.12466 12.0986 9.0116 11.9896C8.89854 11.8807 8.74765 11.8198 8.59064 11.8198C8.43363 11.8198 8.28273 11.8807 8.16967 11.9896C8.05661 12.0986 7.99019 12.2471 7.98438 12.404V13.1348C7.99019 13.2917 8.05661 13.4402 8.16967 13.5492C8.28273 13.6581 8.43363 13.719 8.59064 13.719C8.74765 13.719 8.89854 13.6581 9.0116 13.5492C9.12466 13.4402 9.19108 13.2917 9.1969 13.1348V12.404Z" fill="white"/>
<path d="M9.19732 15.324C9.20034 15.2425 9.1869 15.1612 9.15779 15.085C9.12868 15.0088 9.08451 14.9393 9.02792 14.8805C8.97132 14.8218 8.90347 14.7751 8.8284 14.7432C8.75334 14.7113 8.67262 14.6948 8.59105 14.6948C8.50949 14.6948 8.42877 14.7113 8.3537 14.7432C8.27864 14.7751 8.21079 14.8218 8.15419 14.8805C8.0976 14.9393 8.05343 15.0088 8.02432 15.085C7.99521 15.1612 7.98177 15.2425 7.98479 15.324V16.0531C7.99061 16.21 8.05703 16.3585 8.17009 16.4675C8.28315 16.5764 8.43405 16.6373 8.59105 16.6373C8.74806 16.6373 8.89896 16.5764 9.01202 16.4675C9.12508 16.3585 9.1915 16.21 9.19732 16.0531V15.324Z" fill="white"/>
<path d="M8.59022 20.5542C8.51055 20.5543 8.43168 20.5701 8.35812 20.6007C8.28455 20.6313 8.21774 20.6761 8.16148 20.7325C8.10522 20.7889 8.06062 20.8558 8.03024 20.9295C7.99985 21.0031 7.98427 21.082 7.98438 21.1617V21.565C7.99019 21.7219 8.05661 21.8704 8.16967 21.9794C8.28273 22.0883 8.43363 22.1492 8.59064 22.1492C8.74765 22.1492 8.89854 22.0883 9.0116 21.9794C9.12466 21.8704 9.19108 21.7219 9.1969 21.565V21.1617C9.1969 21.0007 9.13301 20.8463 9.01926 20.7324C8.90551 20.6185 8.7512 20.5544 8.59022 20.5542Z" fill="white"/>
</g>
<defs>
<clipPath id="clip0_1_216">
<rect width="40" height="40" fill="white" transform="translate(0 0.272949)"/>
</clipPath>
</defs>
</svg>
