<svg width="40" height="41" viewBox="0 0 40 41" fill="none" xmlns="http://www.w3.org/2000/svg">
<g clip-path="url(#clip0_1_252)">
<path d="M20 17.7729C15.1752 17.7729 11.25 13.8472 11.25 9.02295C11.25 4.19873 15.1752 0.272949 20 0.272949C24.8248 0.272949 28.75 4.19873 28.75 9.02295C28.75 13.8472 24.8248 17.7729 20 17.7729ZM20 2.77295C16.554 2.77295 13.75 5.5769 13.75 9.02295C13.75 12.469 16.554 15.2729 20 15.2729C23.446 15.2729 26.25 12.469 26.25 9.02295C26.25 5.5769 23.446 2.77295 20 2.77295Z" fill="white"/>
<path d="M33.75 40.2747C33.0597 40.2747 32.5 39.7156 32.5 39.0247V31.3806C32.5 26.5955 28.6072 22.7026 23.822 22.7026H16.178C11.3928 22.7026 7.5 26.5955 7.5 31.3806V39.0247C7.5 39.7156 6.94031 40.2747 6.25 40.2747C5.55969 40.2747 5 39.7156 5 39.0247V31.3806C5 25.2173 10.0146 20.2026 16.178 20.2026H23.822C29.9854 20.2026 35 25.2173 35 31.3806V39.0247C35 39.7156 34.4403 40.2747 33.75 40.2747Z" fill="white"/>
</g>
<defs>
<clipPath id="clip0_1_252">
<rect width="40" height="40" fill="white" transform="translate(0 0.272949)"/>
</clipPath>
</defs>
</svg>
