<svg width="16" height="26" viewBox="0 0 16 26" fill="none" xmlns="http://www.w3.org/2000/svg">
<path d="M12.1664 25.4068L0.933072 14.2068C0.799739 14.0735 0.705517 13.929 0.650406 13.7735C0.594406 13.6179 0.566406 13.4512 0.566406 13.2735C0.566406 13.0957 0.594406 12.929 0.650406 12.7735C0.705517 12.6179 0.799739 12.4735 0.933072 12.3401L12.1664 1.1068C12.4775 0.795692 12.8664 0.640137 13.3331 0.640137C13.7997 0.640137 14.1997 0.806803 14.5331 1.14014C14.8664 1.47347 15.0331 1.86236 15.0331 2.3068C15.0331 2.75125 14.8664 3.14014 14.5331 3.47347L4.73307 13.2735L14.5331 23.0735C14.8442 23.3846 14.9997 23.7677 14.9997 24.2228C14.9997 24.6788 14.8331 25.0735 14.4997 25.4068C14.1664 25.7401 13.7775 25.9068 13.3331 25.9068C12.8886 25.9068 12.4997 25.7401 12.1664 25.4068Z" fill="#2CA3D1"/>
</svg>
