<svg width="40" height="41" viewBox="0 0 40 41" fill="none" xmlns="http://www.w3.org/2000/svg">
<g clip-path="url(#clip0_1_230)">
<path d="M14.6475 29.4408C6.71341 29.4408 0.256537 22.8998 0.253725 14.8604C0.25185 10.9839 1.74279 7.32889 4.45185 4.56857C7.17435 1.79826 10.7943 0.272949 14.645 0.272949C18.4984 0.272949 22.1125 1.79076 24.8365 4.54701C27.5584 7.30232 29.0575 10.9629 29.0575 14.8545C29.0581 18.7314 27.5681 22.3845 24.8622 25.1404C22.1343 27.9136 18.5109 29.4408 14.6594 29.4408C14.659 29.4408 14.6597 29.4408 14.6594 29.4408L14.6472 28.8158L14.6562 28.1908C18.1728 28.1908 21.48 26.7964 23.9706 24.2645C26.4453 21.7442 27.8078 18.4023 27.8072 14.8548C27.8072 11.2939 26.4362 7.94545 23.9468 5.42576C21.46 2.90889 18.1618 1.52295 14.6603 1.52295C11.1325 1.52295 7.82904 2.91576 5.34373 5.44451C2.8656 7.9692 1.50216 11.3133 1.50372 14.8598C1.50591 22.2104 7.40248 28.1908 14.6475 28.1908V29.4408Z" fill="white"/>
<path d="M14.6492 25.9979C11.7126 25.9979 8.94951 24.8367 6.86919 22.7279C4.79076 20.6211 3.64701 17.8248 3.64826 14.8539C3.64763 11.8901 4.78763 9.09764 6.85888 6.99139C8.93951 4.87264 11.7076 3.70451 14.6533 3.70264C17.5976 3.70264 20.3623 4.86451 22.4417 6.97451C24.5198 9.07764 25.6664 11.8742 25.6695 14.8483C25.6701 17.8133 24.5301 20.6045 22.4598 22.7089C20.3758 24.8295 17.6051 25.9976 14.6579 25.9979H14.6492ZM14.6573 4.95264C12.0464 4.9542 9.59482 5.9892 7.75076 7.86764C5.91076 9.73889 4.89794 12.2198 4.89857 14.8542C4.89763 17.4945 5.91357 19.9789 7.75951 21.8501C9.60294 23.7189 12.0498 24.7479 14.6495 24.7479V25.3729L14.6576 24.7479C17.2673 24.7476 19.7217 23.7123 21.5689 21.8326C23.4083 19.9636 24.4208 17.4833 24.4201 14.8489C24.4176 12.2058 23.3989 9.72107 21.5523 7.85232C19.7092 5.98232 17.2608 4.95264 14.6573 4.95264Z" fill="white"/>
<path d="M8.74591 14.8529L7.49591 14.8526C7.49622 12.9251 8.23747 11.1092 9.58279 9.74014C10.9384 8.36076 12.74 7.60107 14.6553 7.60107V8.85107C13.0778 8.85107 11.5931 9.47795 10.4747 10.6164C9.35997 11.7504 8.74622 13.2551 8.74591 14.8529Z" fill="white"/>
<path d="M35.6931 40.2736C35.16 40.2736 34.6303 40.1648 34.119 39.9501L34.004 39.902L24.324 30.0914L29.689 24.6558L39.38 34.4758L39.4268 34.5901C39.9584 35.8904 39.82 37.297 39.0462 38.4492C38.2793 39.5914 37.0256 40.2736 35.6931 40.2736ZM34.714 38.8417C35.934 39.2995 37.2825 38.8342 38.0087 37.7526C38.5243 36.9842 38.6328 36.0508 38.3125 35.1739L29.689 26.4354L26.08 30.0914L34.714 38.8417Z" fill="white"/>
<path d="M32.1713 29.0804L31.2812 28.2026L27.8192 31.713L28.7092 32.5908L32.1713 29.0804Z" fill="white"/>
<path d="M27.5654 27.0477L25.1209 24.5698L24.231 25.4477L26.6755 27.9256L27.5654 27.0477Z" fill="white"/>
</g>
<defs>
<clipPath id="clip0_1_230">
<rect width="40" height="40" fill="white" transform="translate(0 0.272949)"/>
</clipPath>
</defs>
</svg>
